<svg width="213" height="80" viewBox="0 0 213 80" fill="none" xmlns="http://www.w3.org/2000/svg">
<path fill-rule="evenodd" clip-rule="evenodd" d="M69.5021 50.6952C74.6384 39.5377 86.1846 30.2551 100.128 30.2551C113.839 30.2551 121.389 37.3462 121.389 48.5537C121.389 56.0115 118.134 63.2027 113.198 68.6856C107.912 74.5602 100.619 78.5932 92.7693 79.6431C84.9692 80.6847 75.6123 79.2431 70.6509 72.4686C69.6905 71.1688 69.0653 69.6985 68.436 68.2186C68.2907 67.8769 68.1452 67.5347 67.9953 67.194C67.7206 66.5607 67.2295 66.0691 66.6717 66.8024C60.7363 74.5185 55.5417 79.9264 46.6178 79.9264C41.0236 79.9264 36.9196 76.1017 36.9196 70.5938C36.9196 68.0773 37.6688 65.5525 39.1589 62.7527L47.367 47.0705C47.4382 46.9396 47.5155 46.8011 47.5963 46.6565C48.1477 45.6691 48.8571 44.3986 48.8571 43.3374C48.8571 42.4042 48.2078 41.4709 46.9924 41.4709C43.7291 41.4709 38.135 47.1622 31.7001 55.2866L17.157 73.5852C13.9853 77.5099 10.5389 79.9348 6.34334 79.9348C3.17167 79.9348 0 78.0682 0 73.5852C0 69.7204 1.87265 65.9688 3.64025 62.4277C4.12113 61.4643 4.59423 60.5165 5.01973 59.5863C6.78428 55.6183 8.62866 51.6888 10.4731 47.7591C13.0056 42.3637 15.5382 36.9679 17.8646 31.4716C18.5002 29.9717 19.1358 28.5532 19.7561 27.1689C21.5892 23.078 23.2883 19.286 24.4577 14.5729C25.0071 12.373 25.5149 9.8399 23.1257 8.51499C23.0281 8.4609 22.9299 8.4069 22.8314 8.35276C21.0484 7.37266 19.1803 6.34571 19.338 3.882C19.4796 1.65716 21.0862 0.223934 23.2423 0.048947C27.9956 -0.334358 33.2068 1.53217 35.854 5.69853C36.0705 6.03184 36.237 6.38182 36.3868 6.74846C38.8622 12.7533 36.2263 19.8678 34.0036 25.8669C33.7372 26.5858 33.4768 27.2888 33.2318 27.9719C30.5289 35.5103 27.3152 42.2092 23.9924 49.1353C22.669 51.8938 21.3283 54.6884 19.9957 57.5864C19.8542 57.8864 19.7626 58.578 19.979 58.8196C20.4535 59.3613 21.1695 59.2946 21.6939 58.603C22.6605 57.3678 23.4544 56.4235 24.2462 55.4817C25.0569 54.5174 25.8655 53.5556 26.8552 52.2868C34.5055 42.4875 45.6937 30.63 55.2004 30.63C61.4439 30.63 64.524 34.0881 64.524 38.8461C64.524 41.2709 63.5916 44.1624 62.2846 46.6872L52.5865 65.3608C52.5152 65.4917 52.4379 65.6303 52.3572 65.7749C51.8058 66.7623 51.0964 68.0327 51.0964 69.0939C51.0964 70.4021 51.8456 70.9604 52.9611 70.9604C56.6239 70.9604 60.2451 66.2941 62.2014 63.6693C65.1733 59.6779 66.9214 56.3032 69.5021 50.6952ZM81.4812 64.9859C81.4812 69.4689 83.1627 73.5769 87.8245 73.5769H87.8328C97.3395 73.5769 107.221 56.5865 107.221 44.8207C107.221 40.521 105.539 36.6046 100.877 36.6046C91.3625 36.6046 81.4812 53.4117 81.4812 64.9859ZM207.254 63.2868C208.994 61.4703 210.942 61.8453 211.683 63.1785L211.691 63.1368C212.174 64.0034 212.149 65.2867 211.216 66.6283C206.555 73.3194 199.754 79.8773 191.079 79.8773C186.226 79.8773 182.871 76.5192 182.871 72.4112C182.871 71.1446 183.229 69.7613 183.654 68.4948C183.654 68.4816 183.656 68.4707 183.659 68.4561C183.663 68.4429 183.666 68.4267 183.67 68.4031C183.676 68.3733 183.685 68.3355 183.694 68.295C183.714 68.211 183.737 68.115 183.737 68.0531C183.745 67.7782 183.546 67.6198 183.254 67.7365C183.13 67.7873 183.037 67.8802 182.955 67.9608C182.917 67.9991 182.881 68.0346 182.846 68.0615C177.127 75.5026 170.01 79.8856 162.351 79.8856C159.288 79.8856 155.733 78.994 153.644 76.5942C152.303 75.061 151.238 73.2361 150.588 71.2946C150.545 71.1648 150.507 71.031 150.469 70.8966C150.352 70.4869 150.234 70.0709 149.964 69.7447C149.714 69.4447 149.248 69.403 148.882 69.828L148.657 70.103C145.444 74.0194 141.848 77.5774 136.944 79.2107C132.899 80.5606 127.538 80.3772 124.433 77.0941C122.252 74.786 121.627 71.3362 122.068 68.1865C122.51 65.0367 123.866 62.1036 125.207 59.2205C126.772 55.8624 128.645 52.5418 130.518 49.2212C132.391 45.9006 134.264 42.58 135.829 39.2219C136.443 37.9038 137.008 36.7408 137.545 35.6352C138.777 33.0997 139.863 30.8663 141.057 27.7561C141.254 27.2411 141.598 26.4469 142.019 25.4768C143.938 21.0473 147.447 12.9501 145.835 11.0157C145.21 10.2698 144.099 9.58909 143.11 8.9829C142.729 8.7493 142.366 8.52677 142.056 8.31585C140.94 7.55757 140.482 6.18267 140.674 4.79944C140.857 3.43287 141.714 2.19963 142.988 1.683C144.27 1.16637 145.694 1.19971 147.067 1.30803C150.647 1.59134 154.359 3.22456 156.64 6.22434C158.613 8.83248 159.046 13.0322 158.53 16.0819C157.941 19.569 157.104 22.1689 156.077 25.3591C155.944 25.7748 155.807 26.2005 155.666 26.6395C154.69 29.6963 153.945 31.4181 152.811 34.0438C152.64 34.4387 152.46 34.8539 152.27 35.2972C150.624 39.1226 148.831 42.8765 147.038 46.6309C146.382 48.0041 145.726 49.3775 145.078 50.7544C144.054 52.9293 142.799 55.1003 141.535 57.2863C139.632 60.5777 137.709 63.9033 136.528 67.3282C136.32 67.9365 136.129 68.5698 136.204 69.2114C136.52 71.9695 139.866 70.3696 141.148 69.4447C143.796 67.5448 145.943 64.87 147.958 62.3369C150.368 59.3082 152.097 55.9043 153.827 52.5011C155.884 48.4512 157.941 44.4025 161.144 40.9885C166.738 35.0306 174.472 30.2392 182.863 30.2392C185.294 30.2392 187.808 30.5726 189.964 31.7725C191.562 32.6641 192.902 34.039 193.768 35.6555C193.816 35.7457 193.866 35.8605 193.919 35.9849C194.141 36.5041 194.436 37.1907 195.033 36.9554C195.467 36.7877 195.76 35.8776 195.996 35.1441C196.1 34.8207 196.193 34.5316 196.282 34.3556C197.772 31.3725 199.537 30.2476 202.992 30.2476C206.447 30.2476 209.335 32.1141 209.335 35.1056C209.335 36.208 208.673 37.7069 208.131 38.9341C208.03 39.1632 207.933 39.3828 207.845 39.5886L197.031 64.2368C196.29 65.8283 195.541 67.6948 195.541 69.0947C195.541 70.403 196.191 70.9613 197.406 70.9613C200.645 70.9613 203.388 67.7491 205.628 65.1267C206.203 64.453 206.745 63.8182 207.254 63.2868ZM164.599 64.2451C164.599 67.8865 166.272 69.8447 169.444 69.8447H169.452C177.56 69.8447 190.705 52.0126 190.705 42.955C190.705 39.0386 188.374 37.3554 184.736 37.3554C175.787 37.3554 164.599 55.0041 164.599 64.2451Z" fill="#32302F"/>
</svg>
